<?xml version="1.0" standalone="no"?>
<!DOCTYPE svg PUBLIC "-//W3C//DTD SVG 20010904//EN"
 "http://www.w3.org/TR/2001/REC-SVG-20010904/DTD/svg10.dtd">
<svg version="1.0" xmlns="http://www.w3.org/2000/svg"
 width="1280.000000pt" height="904.000000pt" viewBox="0 0 1280.000000 904.000000"
 preserveAspectRatio="xMidYMid meet">
<metadata>
Created by potrace 1.16, written by Peter Selinger 2001-2019
</metadata>
<g transform="translate(0.000000,904.000000) scale(0.100000,-0.100000)" fill="#00008B" stroke="none">
<path d="M3117 5594 c-80 -14 -218 -63 -253 -89 -11 -8 10 -4 56 11 267 89
525 78 771 -34 74 -33 189 -108 189 -122 0 -18 -112 -42 -224 -49 l-111 -7 66
-12 c83 -15 164 -15 257 2 l73 12 59 -62 c59 -64 136 -182 142 -219 3 -17 -6
-21 -62 -31 -259 -48 -538 -37 -768 29 -92 27 -97 20 -12 -13 161 -64 330 -92
560 -92 91 0 203 5 250 11 46 6 87 8 92 3 12 -12 36 -120 47 -207 10 -76 9
-81 -12 -97 -30 -23 -145 -58 -213 -65 -42 -5 -52 -8 -39 -15 20 -12 166 6
226 27 23 8 43 15 45 15 8 0 4 -96 -7 -156 l-11 -62 -58 -16 c-33 -9 -117 -25
-187 -35 l-128 -19 90 -1 c50 -1 128 4 174 9 46 6 85 9 87 7 8 -7 -37 -121
-72 -186 -64 -117 -75 -127 -156 -146 -142 -34 -460 -31 -646 6 -69 14 -77 5
-18 -20 102 -44 196 -56 445 -56 l233 0 -53 -48 c-99 -89 -202 -152 -344 -208
-89 -35 -71 -37 37 -3 424 134 680 481 679 919 -1 415 -184 736 -521 918 -186
100 -461 141 -683 101z"/>
<path d="M4730 4600 l0 -830 45 0 45 0 0 830 0 830 -45 0 -45 0 0 -830z"/>
<path d="M8630 5008 l0 -152 -32 34 c-43 43 -85 60 -153 60 -69 0 -120 -25
-168 -81 -47 -54 -67 -116 -67 -204 0 -232 243 -366 404 -224 44 39 46 40 46
17 0 -14 10 -34 23 -46 19 -18 35 -22 90 -22 l67 0 0 66 c0 58 -3 70 -25 90
l-25 23 0 296 0 295 -80 0 -80 0 0 -152z m-70 -213 c50 -26 70 -65 70 -137 0
-57 -3 -67 -27 -90 -93 -89 -223 -32 -223 96 0 110 91 177 180 131z"/>
<path d="M5369 5124 c-103 -36 -194 -133 -225 -242 -23 -79 -15 -199 19 -274
32 -72 107 -152 172 -186 99 -50 247 -39 343 25 41 28 92 87 92 107 0 10 -130
91 -134 84 -42 -72 -96 -102 -167 -96 -178 17 -231 307 -78 421 63 46 187 23
227 -42 l19 -31 61 43 c34 23 62 48 62 54 0 23 -68 89 -122 118 -45 24 -67 29
-138 32 -59 2 -99 -2 -131 -13z"/>
<path d="M6073 5126 c-169 -53 -279 -245 -243 -423 38 -183 180 -313 343 -313
114 0 212 45 273 126 32 41 30 44 -58 93 l-57 32 -15 -30 c-18 -34 -88 -71
-134 -71 -145 0 -233 200 -154 351 60 115 198 133 278 36 l30 -36 49 35 c28
19 56 39 64 43 19 11 -8 61 -56 100 -79 65 -215 89 -320 57z"/>
<path d="M6500 5065 l0 -75 115 0 115 0 0 -300 0 -300 85 0 85 0 0 300 0 300
115 0 115 0 0 75 0 75 -315 0 -315 0 0 -75z"/>
<path d="M7455 4934 c-16 -9 -47 -34 -67 -57 l-38 -42 0 53 0 52 -75 0 -75 0
0 -275 0 -275 85 0 85 0 0 169 c0 184 0 185 61 216 16 9 49 18 74 22 l45 6 0
73 0 74 -32 0 c-18 -1 -46 -8 -63 -16z"/>
<path d="M7725 4936 c-58 -18 -105 -45 -105 -59 0 -6 9 -31 20 -54 l19 -43 48
25 c119 62 233 37 233 -50 0 -34 -1 -35 -27 -28 -16 5 -62 8 -103 8 -156 -1
-251 -97 -219 -220 21 -80 91 -128 184 -129 67 0 118 20 165 64 l29 27 6 -28
c10 -43 40 -59 112 -59 l63 0 0 70 c0 59 -3 71 -20 80 -18 10 -20 21 -20 118
0 59 -5 124 -11 145 -15 54 -71 112 -126 131 -56 19 -191 20 -248 2z m207
-304 c5 -5 8 -27 6 -48 -3 -36 -7 -41 -51 -63 -61 -30 -113 -22 -137 22 -13
24 -13 30 0 54 23 41 57 55 119 49 30 -3 58 -9 63 -14z"/>
<path d="M9052 4919 c-205 -102 -202 -404 5 -505 48 -24 69 -28 137 -28 102 1
168 27 228 92 l42 46 -69 22 -70 22 -32 -28 c-58 -52 -131 -51 -183 2 -17 16
-30 40 -30 54 l0 24 206 0 207 0 -5 63 c-10 116 -64 197 -163 243 -39 19 -67
24 -131 24 -70 0 -89 -4 -142 -31z m224 -123 c19 -19 34 -43 34 -55 0 -20 -5
-21 -119 -21 l-118 0 5 25 c2 14 17 39 32 55 24 26 35 30 80 30 46 0 56 -4 86
-34z"/>
<path d="M9825 4936 c-16 -7 -47 -32 -67 -55 l-38 -41 0 50 0 50 -75 0 -75 0
0 -275 0 -275 80 0 80 0 0 168 c0 162 1 169 23 190 25 24 97 52 133 52 23 0
24 3 24 75 l0 75 -27 0 c-16 -1 -41 -7 -58 -14z"/>
<path d="M10082 4928 c-84 -40 -125 -123 -100 -201 11 -35 22 -47 63 -69 27
-15 77 -34 110 -42 103 -26 135 -43 135 -71 0 -54 -112 -57 -222 -8 -32 14
-60 24 -61 22 -21 -27 -57 -101 -52 -108 10 -17 108 -49 187 -61 181 -27 308
45 308 173 0 34 -6 53 -26 77 -34 40 -60 53 -175 85 -107 31 -119 38 -119 71
0 46 70 56 160 23 30 -11 62 -22 70 -25 10 -3 25 11 44 42 29 45 29 47 10 61
-70 51 -255 69 -332 31z"/>
<path d="M1951 4827 c93 -71 459 -372 459 -379 0 -5 -43 -89 -95 -187 -52 -99
-95 -182 -95 -186 0 -3 42 27 94 67 328 255 505 394 505 398 1 4 -777 268
-859 292 -21 6 -22 5 -9 -5z"/>
</g>
</svg>
