<?xml version="1.0" encoding="UTF-8"?>
<svg id="Layer_1" data-name="Layer 1" xmlns="http://www.w3.org/2000/svg" viewBox="0 0 841.89 595.28">
  <defs>
    <style>
      .cls-1, .cls-2 {
        fill: #12a89d;
      }

      .cls-3 {
        fill: #126d80;
      }

      .cls-4 {
        fill: #2a516d;
      }

      .cls-2 {
        stroke: #115477;
        stroke-miterlimit: 10;
        stroke-width: 6px;
      }

      .cls-5 {
        fill: #126e7e;
      }
    </style>
  </defs>
  <g>
    <path class="cls-1" d="M367.7,325.59h1.54v15.37h-1.32l-8.56-12.51v12.51h-1.54v-15.37h1.34l8.54,12.48v-12.48Z"/>
    <path class="cls-1" d="M379.8,329.72c1.62,0,2.94,.58,3.94,1.72,1,1.15,1.5,2.51,1.5,4.07,0,.16-.01,.39-.04,.68h-9.64c.15,1.11,.62,2,1.42,2.65s1.78,.98,2.95,.98c.83,0,1.55-.17,2.16-.52,.61-.34,1.06-.79,1.37-1.35l1.27,.75c-.48,.78-1.14,1.39-1.98,1.84-.83,.45-1.79,.68-2.85,.68-1.73,0-3.13-.54-4.22-1.62-1.08-1.08-1.62-2.46-1.62-4.13s.53-3.01,1.6-4.11c1.07-1.1,2.44-1.65,4.13-1.65Zm0,1.41c-1.14,0-2.1,.34-2.87,1.02-.77,.68-1.23,1.56-1.37,2.65h8.19c-.15-1.16-.59-2.06-1.34-2.7-.75-.64-1.62-.97-2.61-.97Z"/>
    <path class="cls-1" d="M397.21,329.98h1.54l-4.5,10.98h-1.76l-4.5-10.98h1.54l3.84,9.43,3.84-9.43Z"/>
    <path class="cls-1" d="M407.33,329.72c1.62,0,2.94,.58,3.94,1.72,1,1.15,1.5,2.51,1.5,4.07,0,.16-.01,.39-.04,.68h-9.64c.15,1.11,.62,2,1.42,2.65s1.78,.98,2.95,.98c.83,0,1.55-.17,2.16-.52,.61-.34,1.06-.79,1.37-1.35l1.27,.75c-.48,.78-1.14,1.39-1.98,1.84-.83,.45-1.79,.68-2.85,.68-1.73,0-3.13-.54-4.22-1.62-1.08-1.08-1.62-2.46-1.62-4.13s.53-3.01,1.6-4.11c1.07-1.1,2.44-1.65,4.13-1.65Zm0,1.41c-1.14,0-2.1,.34-2.87,1.02-.77,.68-1.23,1.56-1.37,2.65h8.19c-.15-1.16-.59-2.06-1.34-2.7-.75-.64-1.62-.97-2.61-.97Z"/>
    <path class="cls-1" d="M418.72,331.8c.67-1.33,1.83-2,3.47-2v1.41c-1,0-1.82,.29-2.48,.88-.66,.59-.99,1.51-.99,2.77v6.1h-1.45v-10.98h1.45v1.82Z"/>
    <path class="cls-1" d="M439.1,341.22c-1.41,0-2.61-.33-3.61-1-1-.67-1.7-1.58-2.1-2.76l1.32-.77c.28,.95,.79,1.69,1.54,2.23,.75,.54,1.7,.8,2.88,.8s2.03-.25,2.67-.76,.96-1.17,.96-2.01-.29-1.41-.88-1.82c-.59-.41-1.55-.83-2.9-1.27-1.59-.53-2.65-.95-3.16-1.27-1.17-.7-1.76-1.72-1.76-3.05s.45-2.33,1.36-3.08,2.03-1.13,3.36-1.13c1.2,0,2.24,.31,3.12,.93,.88,.62,1.53,1.42,1.95,2.38l-1.29,.72c-.7-1.7-1.96-2.55-3.78-2.55-.95,0-1.72,.23-2.31,.7-.58,.47-.88,1.12-.88,1.95,0,.76,.26,1.33,.79,1.71,.53,.38,1.4,.77,2.61,1.16,.56,.19,.96,.33,1.2,.41,.24,.08,.59,.21,1.05,.4s.8,.34,1.02,.48c.22,.14,.49,.33,.8,.57s.54,.48,.68,.72c.14,.24,.26,.53,.37,.88,.11,.34,.17,.71,.17,1.11,0,1.3-.48,2.35-1.43,3.13-.95,.78-2.2,1.17-3.75,1.17Z"/>
    <path class="cls-1" d="M454.38,331.39h-3.16v6.65c0,.6,.12,1.03,.35,1.28,.23,.26,.59,.39,1.05,.4,.47,0,1.05,0,1.76-.03v1.27c-1.54,.23-2.69,.12-3.46-.33-.77-.45-1.15-1.32-1.15-2.59v-6.65h-2.31v-1.41h2.31v-2.63l1.45-.44v3.07h3.16v1.41Z"/>
    <path class="cls-1" d="M467.54,339.56c-1.12,1.11-2.48,1.66-4.09,1.66s-2.97-.55-4.09-1.66c-1.12-1.1-1.68-2.47-1.68-4.09s.56-2.99,1.68-4.09c1.12-1.11,2.48-1.66,4.09-1.66s2.97,.55,4.09,1.66,1.68,2.47,1.68,4.09-.56,2.99-1.68,4.09Zm-7.17-1.01c.83,.84,1.86,1.26,3.07,1.26s2.24-.42,3.07-1.26c.83-.84,1.25-1.87,1.25-3.08s-.42-2.24-1.25-3.08c-.83-.84-1.86-1.26-3.07-1.26s-2.24,.42-3.07,1.26c-.83,.84-1.25,1.87-1.25,3.08s.42,2.24,1.25,3.08Z"/>
    <path class="cls-1" d="M479.71,329.72c1.57,0,2.9,.56,4.01,1.67,1.11,1.11,1.66,2.47,1.66,4.08s-.55,2.97-1.66,4.08c-1.1,1.11-2.44,1.67-4.01,1.67-1.95,0-3.43-.8-4.44-2.42v6.54h-1.45v-15.37h1.45v2.15c1.01-1.61,2.49-2.42,4.44-2.42Zm-3.18,8.84c.83,.84,1.86,1.26,3.07,1.26s2.24-.42,3.07-1.26c.83-.84,1.25-1.87,1.25-3.08s-.42-2.24-1.25-3.08c-.83-.84-1.86-1.26-3.07-1.26s-2.24,.42-3.07,1.26c-.83,.84-1.25,1.87-1.25,3.08s.42,2.24,1.25,3.08Z"/>
    <path class="cls-1" d="M497.89,325.59h1.54v15.37h-1.54v-15.37Z"/>
    <path class="cls-1" d="M516.62,329.72c1.23,0,2.22,.4,2.98,1.19,.75,.79,1.13,1.86,1.13,3.21v6.85h-1.45v-6.85c0-.95-.25-1.69-.74-2.21-.49-.52-1.14-.78-1.94-.78-.91,0-1.64,.3-2.21,.91-.56,.61-.85,1.56-.85,2.84v6.08h-1.45v-6.85c0-.97-.23-1.71-.69-2.22-.46-.51-1.09-.77-1.88-.77-.88,0-1.62,.31-2.24,.92s-.92,1.56-.92,2.83v6.08h-1.45v-10.98h1.45v1.6c.79-1.24,1.91-1.87,3.36-1.87,1.58,0,2.69,.67,3.34,2,.79-1.33,1.98-2,3.56-2Z"/>
    <path class="cls-1" d="M531.61,329.72c1.57,0,2.9,.56,4.01,1.67,1.1,1.11,1.66,2.47,1.66,4.08s-.55,2.97-1.66,4.08c-1.11,1.11-2.44,1.67-4.01,1.67-1.95,0-3.42-.8-4.43-2.42v6.54h-1.45v-15.37h1.45v2.15c1.01-1.61,2.49-2.42,4.43-2.42Zm-3.18,8.84c.83,.84,1.86,1.26,3.07,1.26s2.24-.42,3.07-1.26c.83-.84,1.25-1.87,1.25-3.08s-.42-2.24-1.25-3.08-1.86-1.26-3.07-1.26-2.24,.42-3.07,1.26-1.25,1.87-1.25,3.08,.42,2.24,1.25,3.08Z"/>
    <path class="cls-1" d="M543.34,331.8c.67-1.33,1.83-2,3.47-2v1.41c-1,0-1.82,.29-2.48,.88-.66,.59-.99,1.51-.99,2.77v6.1h-1.45v-10.98h1.45v1.82Z"/>
    <path class="cls-1" d="M559.53,339.56c-1.12,1.11-2.49,1.66-4.09,1.66s-2.97-.55-4.09-1.66c-1.12-1.1-1.68-2.47-1.68-4.09s.56-2.99,1.68-4.09c1.12-1.11,2.48-1.66,4.09-1.66s2.97,.55,4.09,1.66c1.12,1.11,1.68,2.47,1.68,4.09s-.56,2.99-1.68,4.09Zm-7.17-1.01c.83,.84,1.86,1.26,3.07,1.26s2.24-.42,3.07-1.26c.83-.84,1.25-1.87,1.25-3.08s-.42-2.24-1.25-3.08c-.83-.84-1.86-1.26-3.07-1.26s-2.24,.42-3.07,1.26c-.83,.84-1.25,1.87-1.25,3.08s.42,2.24,1.25,3.08Z"/>
    <path class="cls-1" d="M573.28,329.98h1.54l-4.5,10.98h-1.76l-4.5-10.98h1.54l3.84,9.43,3.84-9.43Z"/>
    <path class="cls-1" d="M580.24,327.35c-.21,.21-.45,.31-.75,.31s-.54-.1-.75-.31c-.21-.2-.31-.45-.31-.75s.1-.54,.31-.75,.45-.31,.75-.31,.54,.1,.75,.31,.31,.45,.31,.75-.1,.54-.31,.75Zm-1.47,13.61v-10.98h1.45v10.98h-1.45Z"/>
    <path class="cls-1" d="M590.62,329.72c1.33,0,2.38,.41,3.15,1.22,.77,.81,1.15,1.91,1.15,3.28v6.74h-1.45v-6.74c0-.98-.26-1.74-.78-2.28-.52-.54-1.25-.81-2.21-.81-1.05,0-1.91,.33-2.57,1-.66,.67-.99,1.69-.99,3.08v5.75h-1.45v-10.98h1.45v1.71c.82-1.32,2.05-1.98,3.69-1.98Z"/>
    <path class="cls-1" d="M609.37,329.98h1.45v10.54c0,1.58-.54,2.83-1.62,3.73s-2.38,1.36-3.89,1.36c-2.58,0-4.31-.89-5.2-2.68l1.27-.72c.66,1.33,1.97,2,3.93,2,1.26,0,2.25-.33,2.97-1s1.09-1.56,1.09-2.69v-1.71c-1.01,1.61-2.49,2.42-4.43,2.42-1.57,0-2.9-.56-4.01-1.67-1.11-1.11-1.66-2.47-1.66-4.08s.55-2.97,1.66-4.08c1.1-1.11,2.44-1.67,4.01-1.67,1.95,0,3.42,.81,4.43,2.42v-2.15Zm-7.4,8.57c.83,.84,1.86,1.26,3.07,1.26s2.24-.42,3.07-1.26c.83-.84,1.25-1.87,1.25-3.08s-.42-2.24-1.25-3.08c-.83-.84-1.86-1.26-3.07-1.26s-2.24,.42-3.07,1.26c-.83,.84-1.25,1.87-1.25,3.08s.42,2.24,1.25,3.08Z"/>
    <path class="cls-1" d="M617.94,340.83c-.23,.23-.52,.35-.86,.35s-.62-.12-.86-.35c-.23-.23-.35-.52-.35-.86s.12-.62,.35-.86c.23-.23,.52-.35,.86-.35s.62,.12,.86,.35c.23,.23,.35,.52,.35,.86s-.12,.62-.35,.86Z"/>
  </g>
  <line class="cls-2" x1="329.4" y1="243.94" x2="329.4" y2="353.88"/>
  <g>
    <path class="cls-3" d="M352.46,287.43c0-2.95,.53-5.89,1.59-8.82,1.06-2.93,2.61-5.55,4.64-7.85,2.03-2.31,4.51-4.17,7.44-5.6,2.93-1.43,6.26-2.15,10-2.15,4.38,0,8.19,.99,11.42,2.98,3.23,1.98,5.63,4.57,7.2,7.75l-8.72,6.09c-.51-1.29-1.15-2.36-1.94-3.22-.79-.85-1.64-1.54-2.56-2.08-.92-.53-1.88-.9-2.87-1.11-.99-.21-1.93-.31-2.8-.31-2.03,0-3.78,.44-5.26,1.31-1.48,.88-2.7,2.01-3.67,3.39s-1.7,2.95-2.18,4.71c-.48,1.75-.73,3.53-.73,5.33,0,1.94,.29,3.81,.87,5.6,.58,1.8,1.38,3.39,2.42,4.78,1.04,1.38,2.29,2.48,3.77,3.29,1.48,.81,3.11,1.21,4.91,1.21,.92,0,1.88-.13,2.87-.38,.99-.25,1.95-.65,2.87-1.18,.92-.53,1.75-1.22,2.49-2.08,.74-.85,1.34-1.9,1.8-3.15l9.34,5.47c-.74,1.8-1.81,3.41-3.22,4.84-1.41,1.43-3.01,2.63-4.81,3.6-1.8,.97-3.7,1.71-5.71,2.21-2.01,.51-3.98,.76-5.92,.76-3.41,0-6.54-.73-9.38-2.18-2.84-1.45-5.28-3.38-7.33-5.78-2.05-2.4-3.66-5.12-4.81-8.17-1.15-3.04-1.73-6.13-1.73-9.27Z"/>
    <path class="cls-3" d="M398.34,287.43c0-2.95,.53-5.89,1.59-8.82,1.06-2.93,2.61-5.55,4.64-7.85,2.03-2.31,4.51-4.17,7.44-5.6,2.93-1.43,6.26-2.15,10-2.15,4.38,0,8.19,.99,11.42,2.98,3.23,1.98,5.63,4.57,7.2,7.75l-8.72,6.09c-.51-1.29-1.15-2.36-1.94-3.22-.79-.85-1.64-1.54-2.56-2.08-.92-.53-1.88-.9-2.87-1.11-.99-.21-1.93-.31-2.8-.31-2.03,0-3.78,.44-5.26,1.31-1.48,.88-2.7,2.01-3.67,3.39s-1.7,2.95-2.18,4.71c-.48,1.75-.73,3.53-.73,5.33,0,1.94,.29,3.81,.87,5.6,.58,1.8,1.38,3.39,2.42,4.78,1.04,1.38,2.29,2.48,3.77,3.29,1.48,.81,3.11,1.21,4.91,1.21,.92,0,1.88-.13,2.87-.38,.99-.25,1.95-.65,2.87-1.18,.92-.53,1.75-1.22,2.49-2.08,.74-.85,1.34-1.9,1.8-3.15l9.34,5.47c-.74,1.8-1.81,3.41-3.22,4.84-1.41,1.43-3.01,2.63-4.81,3.6-1.8,.97-3.7,1.71-5.71,2.21-2.01,.51-3.98,.76-5.92,.76-3.41,0-6.54-.73-9.38-2.18-2.84-1.45-5.28-3.38-7.33-5.78-2.05-2.4-3.66-5.12-4.81-8.17-1.15-3.04-1.73-6.13-1.73-9.27Z"/>
    <path class="cls-3" d="M484.35,273.25h-14.95v39.16h-11.35v-39.16h-15.01v-9.96h41.31v9.96Z"/>
    <path class="cls-3" d="M512.03,285.56c-2.68,.05-5.09,.48-7.23,1.31-2.15,.83-3.73,2.08-4.74,3.74v21.8h-11.07v-36.33h10.17v7.33c1.29-2.44,2.92-4.35,4.88-5.71,1.96-1.36,4.05-2.09,6.26-2.18,.92,0,1.5,.02,1.73,.07v9.96Z"/>
    <path class="cls-3" d="M526.56,313.1c-1.8,0-3.47-.29-5.02-.87-1.55-.58-2.87-1.38-3.98-2.42-1.11-1.04-1.98-2.26-2.63-3.67-.65-1.41-.97-2.94-.97-4.6,0-1.8,.38-3.44,1.14-4.91,.76-1.48,1.83-2.74,3.22-3.81,1.38-1.06,3.02-1.89,4.91-2.49,1.89-.6,3.99-.9,6.3-.9,1.52,0,3,.13,4.43,.38s2.67,.63,3.74,1.14v-1.66c0-4.2-2.42-6.3-7.26-6.3-1.98,0-3.88,.34-5.67,1-1.8,.67-3.69,1.67-5.67,3.01l-3.25-6.92c2.4-1.57,4.89-2.74,7.47-3.53,2.58-.78,5.33-1.18,8.23-1.18,5.49,0,9.73,1.29,12.73,3.88,3,2.58,4.5,6.37,4.5,11.35v9.34c0,1.11,.21,1.88,.62,2.32s1.15,.7,2.21,.79v9.34c-1.06,.23-2.04,.38-2.94,.45-.9,.07-1.7,.1-2.39,.1-2.03-.05-3.58-.46-4.64-1.25-1.06-.78-1.73-1.91-2.01-3.39l-.21-1.66c-1.62,2.08-3.54,3.67-5.78,4.77s-4.6,1.66-7.09,1.66Zm3.25-7.96c1.2,0,2.36-.21,3.49-.62,1.13-.42,2.06-.97,2.8-1.66,1.06-.83,1.59-1.71,1.59-2.63v-3.46c-.97-.37-2.02-.66-3.15-.87-1.13-.21-2.18-.31-3.15-.31-2.03,0-3.7,.46-5.02,1.38-1.31,.92-1.97,2.12-1.97,3.6,0,1.34,.51,2.43,1.52,3.29,1.01,.85,2.31,1.28,3.88,1.28Z"/>
    <path class="cls-3" d="M572.16,313.1c-2.49,0-4.79-.47-6.88-1.42-2.1-.95-3.91-2.27-5.43-3.98-1.52-1.71-2.71-3.7-3.56-5.99-.85-2.28-1.28-4.79-1.28-7.51s.39-5.1,1.18-7.4c.78-2.31,1.89-4.3,3.32-5.99,1.43-1.68,3.12-3.01,5.09-3.98,1.96-.97,4.12-1.45,6.47-1.45,2.49,0,4.77,.6,6.85,1.8,2.08,1.2,3.67,2.81,4.77,4.84v-20.14h11.07v38.06c0,1.11,.21,1.88,.62,2.32,.42,.44,1.15,.7,2.21,.79v9.34c-1.15,.23-2.16,.38-3.01,.45-.85,.07-1.63,.1-2.32,.1-3.88-.09-6.09-1.64-6.64-4.64l-.21-1.94c-1.34,2.26-3.09,3.94-5.26,5.05-2.17,1.11-4.5,1.66-6.99,1.66Zm2.98-9.34c1.52,0,2.97-.45,4.36-1.35,1.38-.9,2.47-2.13,3.25-3.7v-7.61c-.69-1.84-1.81-3.36-3.36-4.53-1.55-1.18-3.15-1.76-4.81-1.76-1.2,0-2.3,.27-3.29,.8-.99,.53-1.86,1.23-2.59,2.11-.74,.88-1.3,1.89-1.7,3.04-.39,1.15-.59,2.38-.59,3.67,0,2.72,.81,4.96,2.42,6.71,1.61,1.75,3.71,2.63,6.3,2.63Z"/>
    <path class="cls-3" d="M620.11,313.1c-3.04,0-5.78-.5-8.2-1.49-2.42-.99-4.48-2.34-6.16-4.05-1.68-1.71-2.96-3.68-3.84-5.92-.88-2.24-1.31-4.58-1.31-7.02,0-2.63,.44-5.11,1.31-7.44,.88-2.33,2.14-4.37,3.81-6.12,1.66-1.75,3.7-3.14,6.12-4.15,2.42-1.01,5.18-1.52,8.27-1.52s5.83,.51,8.23,1.52c2.4,1.02,4.43,2.39,6.09,4.12,1.66,1.73,2.92,3.73,3.77,5.99,.85,2.26,1.28,4.64,1.28,7.13,0,.65-.02,1.28-.07,1.9-.05,.62-.12,1.17-.21,1.63h-26.85c.18,2.45,1.07,4.3,2.66,5.57s3.4,1.9,5.43,1.9c1.61,0,3.17-.39,4.67-1.18,1.5-.78,2.5-1.84,3.01-3.18l9.41,2.63c-1.43,2.86-3.64,5.19-6.64,6.99s-6.6,2.7-10.79,2.7Zm7.68-22.28c-.23-2.31-1.06-4.13-2.49-5.47-1.43-1.34-3.21-2.01-5.33-2.01s-3.96,.68-5.36,2.04c-1.41,1.36-2.23,3.17-2.46,5.43h15.64Z"/>
    <path class="cls-3" d="M667.5,285.56c-2.68,.05-5.09,.48-7.23,1.31-2.15,.83-3.73,2.08-4.74,3.74v21.8h-11.07v-36.33h10.17v7.33c1.29-2.44,2.92-4.35,4.88-5.71,1.96-1.36,4.05-2.09,6.26-2.18,.92,0,1.5,.02,1.73,.07v9.96Z"/>
    <path class="cls-3" d="M687.36,313.1c-1.52,0-3.1-.12-4.74-.35-1.64-.23-3.26-.54-4.88-.93-1.62-.39-3.16-.88-4.64-1.45-1.48-.58-2.77-1.21-3.88-1.9l4.36-7.47c2.4,1.38,4.73,2.45,6.99,3.18,2.26,.74,4.43,1.11,6.5,1.11,1.61,0,2.85-.25,3.7-.76,.85-.51,1.28-1.25,1.28-2.21s-.58-1.72-1.73-2.25c-1.15-.53-3.14-1.16-5.95-1.9-2.45-.65-4.52-1.29-6.23-1.94-1.71-.65-3.08-1.37-4.12-2.18-1.04-.81-1.79-1.72-2.25-2.73-.46-1.01-.69-2.21-.69-3.6,0-1.84,.38-3.53,1.14-5.05,.76-1.52,1.81-2.81,3.15-3.88,1.34-1.06,2.92-1.89,4.74-2.49,1.82-.6,3.82-.9,5.99-.9,2.54,0,5.13,.38,7.78,1.14s5.25,1.81,7.79,3.15l-4.36,6.99c-2.26-1.25-4.28-2.16-6.05-2.73-1.78-.58-3.49-.86-5.16-.86-1.38,0-2.53,.24-3.42,.73s-1.35,1.26-1.35,2.32c0,.51,.11,.93,.35,1.28,.23,.35,.61,.67,1.14,.97,.53,.3,1.23,.58,2.11,.83,.88,.25,1.96,.54,3.25,.87,2.67,.69,4.94,1.38,6.78,2.08,1.84,.69,3.34,1.46,4.5,2.32s1.98,1.83,2.49,2.94c.51,1.11,.76,2.42,.76,3.94,0,1.8-.36,3.42-1.07,4.88-.72,1.45-1.74,2.69-3.08,3.7-1.34,1.02-2.95,1.8-4.84,2.35s-4.01,.83-6.37,.83Z"/>
  </g>
  <g>
    <polygon class="cls-5" points="142.26 282.82 201.21 302.65 160.52 334.47 174.08 308.65 142.26 282.82"/>
    <polygon class="cls-1" points="185.04 353.88 212.17 301.08 145.39 252.04 266.43 291.17 185.04 353.88"/>
    <path class="cls-4" d="M238.65,364.64s24.24-3.53,39.78-21.04c0,0-37.28,3.84-48.74-5.72,0,0,30.07,7.2,52.84,.2,0,0,6.97-8.76,10.56-21.05,0,0-13.33,2.72-28.74,1.73,0,0,24.97-2.23,29.65-5.19,0,0,2.6-10.59,1.08-13.89,0,0-11.83,4.5-20.76,2.3,0,0,15.38-.9,20.96-5.99,0,0-1.04-14.16-3.78-19.64s-2.57,.46-2.57,.46c0,0-39.27,6.31-63.36-8.32,0,0,25.99,11.69,62.77,3.49,0,0-4.2-11.28-14.02-19.64,0,0-15.54,4.13-26.58-.3,0,0,18.21,.87,23.15-3.35,0,0-28.82-25.84-70.11-7.6,0,0,17.98-14.2,50.04-6.59,0,0,48.9,9.67,48.96,67.47,0,0,1.37,54.48-61.11,62.66Z"/>
    <polygon class="cls-4" points="288.93 276.82 291.5 276.36 291.5 272.13 284.95 276.82 288.93 276.82"/>
  </g>
</svg>